<?xml version="1.0" encoding="UTF-8"?>
<!DOCTYPE svg PUBLIC "-//W3C//DTD SVG 1.1//EN" "http://www.w3.org/Graphics/SVG/1.1/DTD/svg11.dtd">
<svg width="144" height="42" viewBox="0 0 144 42" fill="none" xmlns="http://www.w3.org/2000/svg">
<path d="M7.78402 20.928C7.78402 21.696 7.97602 22.448 8.36002 23.184C8.77602 23.888 9.33602 24.24 10.04 24.24C10.776 24.24 11.336 24.16 11.72 24C12.136 23.808 12.376 23.712 12.44 23.712C12.632 23.712 12.728 23.84 12.728 24.096C12.728 24.352 12.536 24.608 12.152 24.864C11.8 25.088 11.144 25.2 10.184 25.2C9.25602 25.2 8.48802 24.816 7.88002 24.048C7.27202 23.28 6.92002 22.432 6.82402 21.504V36H2.07202V13.776H6.82402V20.784C6.95202 18.768 7.94402 17.024 9.80002 15.552C11.656 14.048 13.592 13.296 15.608 13.296C17.656 13.296 19.112 13.92 19.976 15.168C20.872 16.384 21.432 18.144 21.656 20.448C21.784 18.528 22.776 16.864 24.632 15.456C26.52 14.016 28.456 13.296 30.44 13.296C32.552 13.296 34.104 14.032 35.096 15.504C36.12 16.944 36.632 20.032 36.632 24.768V36H31.832V26.016C31.832 22.24 31.624 19.424 31.208 17.568C30.824 15.712 30.072 14.784 28.952 14.784C27.544 14.784 26.136 15.44 24.728 16.752C23.32 18.064 22.616 19.456 22.616 20.928C22.616 21.696 22.808 22.448 23.192 23.184C23.608 23.888 24.264 24.24 25.16 24.24C25.704 24.24 26.168 24.16 26.552 24C26.968 23.808 27.208 23.712 27.272 23.712C27.464 23.712 27.56 23.84 27.56 24.096C27.56 24.352 27.368 24.608 26.984 24.864C26.632 25.088 26.008 25.2 25.112 25.2C24.248 25.2 23.512 24.896 22.904 24.288C22.296 23.648 21.912 22.832 21.752 21.84C21.784 22.448 21.8 23.424 21.8 24.768V36H17V26.016C17 22.24 16.792 19.424 16.376 17.568C15.992 15.712 15.24 14.784 14.12 14.784C12.712 14.784 11.304 15.44 9.89602 16.752C8.48802 18.064 7.78402 19.456 7.78402 20.928Z" fill="white"/>
<path d="M49.3411 36.48C47.0371 36.48 44.9891 35.84 43.1971 34.56C41.4371 33.248 40.5571 31.44 40.5571 29.136C40.5571 27.792 40.8771 26.624 41.5171 25.632C42.1891 24.64 43.0371 23.904 44.0611 23.424C45.9491 22.464 47.7891 21.984 49.5811 21.984C51.3731 21.984 53.4051 22.464 55.6771 23.424C55.6451 19.712 55.1811 17.248 54.2851 16.032C53.4212 14.784 52.0771 14.16 50.2531 14.16C48.4291 14.16 46.8451 14.496 45.5011 15.168C44.1891 15.84 43.5331 16.736 43.5331 17.856C43.5331 18.24 43.3571 18.432 43.0051 18.432C42.6851 18.432 42.5251 18.256 42.5251 17.904C42.5251 16.56 43.2611 15.456 44.7331 14.592C46.2371 13.696 48.4451 13.248 51.3571 13.248C57.4371 13.248 60.4771 16.832 60.4771 24V36H55.6771V32.208C55.4531 33.456 54.7331 34.48 53.5171 35.28C52.3011 36.08 50.9091 36.48 49.3411 36.48ZM53.5651 27.504C54.7171 28.304 55.4211 29.408 55.6771 30.816V24.288C53.3731 23.36 51.4851 22.896 50.0131 22.896C48.5731 22.896 47.4371 23.504 46.6051 24.72C45.7731 25.936 45.3571 27.424 45.3571 29.184C45.3571 30.944 45.6931 32.448 46.3651 33.696C47.0691 34.912 48.1091 35.52 49.4851 35.52C50.8931 35.52 52.1251 35.168 53.1811 34.464C54.2371 33.728 54.7651 32.864 54.7651 31.872C54.7651 30.144 54.1891 28.96 53.0371 28.32C52.5571 28.032 52.3171 27.76 52.3171 27.504C52.3171 27.248 52.4291 27.12 52.6531 27.12C52.8771 27.12 53.1811 27.248 53.5651 27.504Z" fill="white"/>
<path d="M82.0816 15.6C82.0816 15.952 81.9377 16.224 81.6497 16.416C81.3937 16.608 81.0576 16.704 80.6416 16.704C80.2256 16.704 79.8896 16.592 79.6336 16.368C79.3776 16.112 79.2016 15.84 79.1056 15.552C79.0416 15.264 78.8496 15.008 78.5296 14.784C78.2096 14.528 77.7616 14.4 77.1856 14.4C75.7776 14.4 74.4657 15.424 73.2496 17.472C72.0336 19.52 71.3297 21.84 71.1376 24.432V36H66.3376V13.776H71.1376V19.44C71.9056 17.584 72.8976 16.048 74.1136 14.832C75.3616 13.584 76.6096 12.96 77.8577 12.96C79.1057 12.96 80.1136 13.184 80.8816 13.632C81.6816 14.048 82.0816 14.704 82.0816 15.6Z" fill="white"/>
<path d="M103.669 40.32C101.941 40.32 100.597 39.744 99.6373 38.592C98.7093 37.472 98.1013 36.08 97.8133 34.416C97.5573 32.752 97.3333 31.072 97.1413 29.376C96.7253 25.184 95.4773 22.896 93.3973 22.512L89.6533 27.456V36H84.8533V0H89.6533V25.872L95.7013 17.856C96.9173 16.224 98.3413 14.896 99.9733 13.872C101.605 12.848 103.285 12.336 105.013 12.336C105.621 12.336 105.925 12.48 105.925 12.768C105.925 13.152 105.733 13.344 105.349 13.344C104.453 13.344 103.669 13.408 102.997 13.536C102.357 13.632 101.397 14.096 100.117 14.928C98.8373 15.76 97.5893 16.976 96.3733 18.576L94.0213 21.648C94.7253 21.584 95.1893 21.552 95.4133 21.552C97.0453 21.552 98.3573 22 99.3493 22.896C100.373 23.76 101.029 24.848 101.317 26.16C101.637 27.472 101.877 28.912 102.037 30.48C102.229 32.016 102.341 33.44 102.373 34.752C102.437 36.064 102.677 37.152 103.093 38.016C103.509 38.912 104.101 39.36 104.869 39.36C105.637 39.36 106.309 39.136 106.885 38.688C107.461 38.272 107.909 37.84 108.229 37.392C108.549 36.976 108.773 36.768 108.901 36.768C109.029 36.768 109.093 36.832 109.093 36.96C109.093 37.12 109.045 37.296 108.949 37.488C107.989 39.376 106.229 40.32 103.669 40.32Z" fill="white"/>
<path d="M114.436 34.32C114.884 34.64 115.444 34.912 116.116 35.136C116.82 35.36 117.668 35.472 118.66 35.472C119.652 35.472 120.708 35.248 121.828 34.8C122.948 34.32 123.732 33.616 124.18 32.688H125.572C124.324 35.216 121.7 36.48 117.7 36.48C114.628 36.48 112.02 35.392 109.876 33.216C107.764 31.008 106.708 28.256 106.708 24.96C106.708 21.632 107.828 18.864 110.068 16.656C112.308 14.416 114.74 13.296 117.364 13.296C120.02 13.296 122.1 14.032 123.604 15.504C125.14 16.944 125.908 18.656 125.908 20.64C125.908 22.624 125.092 24.384 123.46 25.92C121.828 27.456 119.684 28.224 117.028 28.224C114.372 28.224 112.516 27.088 111.46 24.816C111.492 25.04 111.524 25.52 111.556 26.256C111.62 26.992 111.668 27.568 111.7 27.984C111.732 28.4 111.812 28.976 111.94 29.712C112.1 30.448 112.26 31.04 112.42 31.488C112.612 31.936 112.884 32.448 113.236 33.024C113.588 33.568 113.988 34 114.436 34.32ZM121.78 20.4C121.78 16.272 120.212 14.208 117.076 14.208C115.54 14.208 114.276 14.96 113.284 16.464C112.324 17.936 111.78 19.728 111.652 21.84C112.036 20.944 112.612 20.224 113.38 19.68C114.18 19.136 114.996 18.864 115.828 18.864C116.692 18.864 117.124 19.024 117.124 19.344C117.124 19.632 116.932 19.776 116.548 19.776C115.076 19.872 113.988 20.24 113.284 20.88C112.612 21.52 112.276 22.384 112.276 23.472C112.276 24.56 112.66 25.488 113.428 26.256C114.228 26.992 115.156 27.36 116.212 27.36C117.94 27.36 119.3 26.672 120.292 25.296C121.284 23.888 121.78 22.256 121.78 20.4Z" fill="white"/>
<path d="M127.438 14.736V13.776H131.854V7.2H136.654V13.776H141.694V14.736H136.654V29.568C136.654 33.536 137.518 35.52 139.246 35.52C139.918 35.52 140.542 35.312 141.118 34.896C141.694 34.448 142.142 34.016 142.462 33.6C142.782 33.152 143.006 32.928 143.134 32.928C143.262 32.928 143.326 33.008 143.326 33.168C143.326 33.296 143.278 33.456 143.182 33.648C142.222 35.536 140.462 36.48 137.902 36.48C135.854 36.48 134.334 35.696 133.342 34.128C132.35 32.56 131.854 30.464 131.854 27.84V14.736H127.438Z" fill="white"/>
<path d="M5.78402 21.928C5.78402 22.696 5.97602 23.448 6.36002 24.184C6.77602 24.888 7.33602 25.24 8.04002 25.24C8.77602 25.24 9.33602 25.16 9.72002 25C10.136 24.808 10.376 24.712 10.44 24.712C10.632 24.712 10.728 24.84 10.728 25.096C10.728 25.352 10.536 25.608 10.152 25.864C9.80002 26.088 9.14402 26.2 8.18402 26.2C7.25602 26.2 6.48802 25.816 5.88002 25.048C5.27202 24.28 4.92002 23.432 4.82402 22.504V37H0.0720215V14.776H4.82402V21.784C4.95202 19.768 5.94402 18.024 7.80002 16.552C9.65602 15.048 11.592 14.296 13.608 14.296C15.656 14.296 17.112 14.92 17.976 16.168C18.872 17.384 19.432 19.144 19.656 21.448C19.784 19.528 20.776 17.864 22.632 16.456C24.52 15.016 26.456 14.296 28.44 14.296C30.552 14.296 32.104 15.032 33.096 16.504C34.12 17.944 34.632 21.032 34.632 25.768V37H29.832V27.016C29.832 23.24 29.624 20.424 29.208 18.568C28.824 16.712 28.072 15.784 26.952 15.784C25.544 15.784 24.136 16.44 22.728 17.752C21.32 19.064 20.616 20.456 20.616 21.928C20.616 22.696 20.808 23.448 21.192 24.184C21.608 24.888 22.264 25.24 23.16 25.24C23.704 25.24 24.168 25.16 24.552 25C24.968 24.808 25.208 24.712 25.272 24.712C25.464 24.712 25.56 24.84 25.56 25.096C25.56 25.352 25.368 25.608 24.984 25.864C24.632 26.088 24.008 26.2 23.112 26.2C22.248 26.2 21.512 25.896 20.904 25.288C20.296 24.648 19.912 23.832 19.752 22.84C19.784 23.448 19.8 24.424 19.8 25.768V37H15V27.016C15 23.24 14.792 20.424 14.376 18.568C13.992 16.712 13.24 15.784 12.12 15.784C10.712 15.784 9.30402 16.44 7.89602 17.752C6.48802 19.064 5.78402 20.456 5.78402 21.928Z" fill="white"/>
<path d="M47.3411 37.48C45.0371 37.48 42.9891 36.84 41.1971 35.56C39.4371 34.248 38.5571 32.44 38.5571 30.136C38.5571 28.792 38.8771 27.624 39.5171 26.632C40.1891 25.64 41.0371 24.904 42.0611 24.424C43.9491 23.464 45.7891 22.984 47.5811 22.984C49.3731 22.984 51.4051 23.464 53.6771 24.424C53.6451 20.712 53.1811 18.248 52.2851 17.032C51.4211 15.784 50.0771 15.16 48.2531 15.16C46.4291 15.16 44.8451 15.496 43.5011 16.168C42.1891 16.84 41.5331 17.736 41.5331 18.856C41.5331 19.24 41.3571 19.432 41.0051 19.432C40.6851 19.432 40.5251 19.256 40.5251 18.904C40.5251 17.56 41.2611 16.456 42.7331 15.592C44.2371 14.696 46.4451 14.248 49.3571 14.248C55.4371 14.248 58.4771 17.832 58.4771 25V37H53.6771V33.208C53.4531 34.456 52.7331 35.48 51.5171 36.28C50.3011 37.08 48.9091 37.48 47.3411 37.48ZM51.5651 28.504C52.7171 29.304 53.4211 30.408 53.6771 31.816V25.288C51.3731 24.36 49.4851 23.896 48.0131 23.896C46.5731 23.896 45.4371 24.504 44.6051 25.72C43.7731 26.936 43.3571 28.424 43.3571 30.184C43.3571 31.944 43.6931 33.448 44.3651 34.696C45.0691 35.912 46.1091 36.52 47.4851 36.52C48.8931 36.52 50.1251 36.168 51.1811 35.464C52.2371 34.728 52.7651 33.864 52.7651 32.872C52.7651 31.144 52.1891 29.96 51.0371 29.32C50.5571 29.032 50.3171 28.76 50.3171 28.504C50.3171 28.248 50.4291 28.12 50.6531 28.12C50.8771 28.12 51.1811 28.248 51.5651 28.504Z" fill="white"/>
<path d="M80.0816 16.6C80.0816 16.952 79.9377 17.224 79.6497 17.416C79.3937 17.608 79.0576 17.704 78.6416 17.704C78.2256 17.704 77.8896 17.592 77.6336 17.368C77.3776 17.112 77.2016 16.84 77.1056 16.552C77.0416 16.264 76.8496 16.008 76.5296 15.784C76.2096 15.528 75.7616 15.4 75.1856 15.4C73.7776 15.4 72.4656 16.424 71.2496 18.472C70.0336 20.52 69.3296 22.84 69.1376 25.432V37H64.3376V14.776H69.1376V20.44C69.9056 18.584 70.8976 17.048 72.1136 15.832C73.3616 14.584 74.6097 13.96 75.8577 13.96C77.1057 13.96 78.1136 14.184 78.8816 14.632C79.6816 15.048 80.0816 15.704 80.0816 16.6Z" fill="white"/>
<path d="M101.669 41.32C99.9413 41.32 98.5973 40.744 97.6373 39.592C96.7093 38.472 96.1013 37.08 95.8133 35.416C95.5573 33.752 95.3333 32.072 95.1413 30.376C94.7253 26.184 93.4773 23.896 91.3973 23.512L87.6533 28.456V37H82.8533V1H87.6533V26.872L93.7013 18.856C94.9173 17.224 96.3413 15.896 97.9733 14.872C99.6053 13.848 101.285 13.336 103.013 13.336C103.621 13.336 103.925 13.48 103.925 13.768C103.925 14.152 103.733 14.344 103.349 14.344C102.453 14.344 101.669 14.408 100.997 14.536C100.357 14.632 99.3973 15.096 98.1173 15.928C96.8373 16.76 95.5893 17.976 94.3733 19.576L92.0213 22.648C92.7253 22.584 93.1893 22.552 93.4133 22.552C95.0453 22.552 96.3573 23 97.3493 23.896C98.3733 24.76 99.0293 25.848 99.3173 27.16C99.6373 28.472 99.8773 29.912 100.037 31.48C100.229 33.016 100.341 34.44 100.373 35.752C100.437 37.064 100.677 38.152 101.093 39.016C101.509 39.912 102.101 40.36 102.869 40.36C103.637 40.36 104.309 40.136 104.885 39.688C105.461 39.272 105.909 38.84 106.229 38.392C106.549 37.976 106.773 37.768 106.901 37.768C107.029 37.768 107.093 37.832 107.093 37.96C107.093 38.12 107.045 38.296 106.949 38.488C105.989 40.376 104.229 41.32 101.669 41.32Z" fill="white"/>
<path d="M112.436 35.32C112.884 35.64 113.444 35.912 114.116 36.136C114.82 36.36 115.668 36.472 116.66 36.472C117.652 36.472 118.708 36.248 119.828 35.8C120.948 35.32 121.732 34.616 122.18 33.688H123.572C122.324 36.216 119.7 37.48 115.7 37.48C112.628 37.48 110.02 36.392 107.876 34.216C105.764 32.008 104.708 29.256 104.708 25.96C104.708 22.632 105.828 19.864 108.068 17.656C110.308 15.416 112.74 14.296 115.364 14.296C118.02 14.296 120.1 15.032 121.604 16.504C123.14 17.944 123.908 19.656 123.908 21.64C123.908 23.624 123.092 25.384 121.46 26.92C119.828 28.456 117.684 29.224 115.028 29.224C112.372 29.224 110.516 28.088 109.46 25.816C109.492 26.04 109.524 26.52 109.556 27.256C109.62 27.992 109.668 28.568 109.7 28.984C109.732 29.4 109.812 29.976 109.94 30.712C110.1 31.448 110.26 32.04 110.42 32.488C110.612 32.936 110.884 33.448 111.236 34.024C111.588 34.568 111.988 35 112.436 35.32ZM119.78 21.4C119.78 17.272 118.212 15.208 115.076 15.208C113.54 15.208 112.276 15.96 111.284 17.464C110.324 18.936 109.78 20.728 109.652 22.84C110.036 21.944 110.612 21.224 111.38 20.68C112.18 20.136 112.996 19.864 113.828 19.864C114.692 19.864 115.124 20.024 115.124 20.344C115.124 20.632 114.932 20.776 114.548 20.776C113.076 20.872 111.988 21.24 111.284 21.88C110.612 22.52 110.276 23.384 110.276 24.472C110.276 25.56 110.66 26.488 111.428 27.256C112.228 27.992 113.156 28.36 114.212 28.36C115.94 28.36 117.3 27.672 118.292 26.296C119.284 24.888 119.78 23.256 119.78 21.4Z" fill="white"/>
<path d="M125.438 15.736V14.776H129.854V8.2H134.654V14.776H139.694V15.736H134.654V30.568C134.654 34.536 135.518 36.52 137.246 36.52C137.918 36.52 138.542 36.312 139.118 35.896C139.694 35.448 140.142 35.016 140.462 34.6C140.782 34.152 141.006 33.928 141.134 33.928C141.262 33.928 141.326 34.008 141.326 34.168C141.326 34.296 141.278 34.456 141.182 34.648C140.222 36.536 138.462 37.48 135.902 37.48C133.854 37.48 132.334 36.696 131.342 35.128C130.35 33.56 129.854 31.464 129.854 28.84V15.736H125.438Z" fill="white"/>
</svg>